<svg xmlns="http://www.w3.org/2000/svg" style="display:none">
  <symbol id="alert" viewBox="0 0 20 20">
    <path fill="currentColor" d="M10 2a6 6 0 0 0-6 6v3.586l-.707.707A1 1 0 0 0 4 14h12a1 1 0 0 0 .707-1.707L16 11.586V8a6 6 0 0 0-6-6zm0 16a2 2 0 0 1-2-2h4a2 2 0 0 1-2 2z"/>
  </symbol>
  <symbol id="check" viewBox="0 0 24 24">
    <polyline points="20 6 9 17 4 12" fill="none" stroke="currentColor" stroke-width="2" stroke-linecap="round" stroke-linejoin="round"/>
  </symbol>
  <symbol id="close" viewBox="0 0 20 20">
    <path fill="currentColor" d="M4.089 4.216a.5.5 0 0 1 .638-.057l.07.057L10 9.42l5.203-5.204a.5.5 0 0 1 .765.638l-.057.07L10.708 10.1l5.203 5.204a.5.5 0 0 1-.638.765l-.07-.057L10 10.808l-5.203 5.204a.5.5 0 0 1-.765-.638l.057-.07L9.292 10.1 4.089 4.924a.5.5 0 0 1 0-.708z"/>
  </symbol>
  <symbol id="chevron-down" viewBox="0 0 20 20">
    <path fill="currentColor" d="M3.22 7.22a.75.75 0 0 1 1.06 0L10 12.94l5.72-5.72a.75.75 0 1 1 1.06 1.06l-6.25 6.25a.75.75 0 0 1-1.06 0L3.22 8.28a.75.75 0 0 1 0-1.06z"/>
  </symbol>
  <symbol id="chevron-right" viewBox="0 0 20 20">
    <path fill="currentColor" d="M7.22 3.22a.75.75 0 0 1 1.06 0l6.25 6.25a.75.75 0 0 1 0 1.06l-6.25 6.25a.75.75 0 1 1-1.06-1.06L12.94 10 7.22 4.28a.75.75 0 0 1 0-1.06z"/>
  </symbol>
  <symbol id="info" viewBox="0 0 20 20">
    <path fill="currentColor" d="M10 2a8 8 0 1 1 0 16 8 8 0 0 1 0-16zm0 1.5a6.5 6.5 0 1 0 0 13 6.5 6.5 0 0 0 0-13zM10 8.5a.75.75 0 0 1 .75.75v4a.75.75 0 0 1-1.5 0v-4A.75.75 0 0 1 10 8.5zM10 6a1 1 0 1 1 0 2 1 1 0 0 1 0-2z"/>
  </symbol>
  <symbol id="warning" viewBox="0 0 20 20">
    <path fill="currentColor" d="M8.68 2.79a1.5 1.5 0 0 1 2.64 0l6.5 12A1.5 1.5 0 0 1 16.5 17h-13a1.5 1.5 0 0 1-1.32-2.21l6.5-12zM10 7a.75.75 0 0 0-.75.75v3.5a.75.75 0 0 0 1.5 0v-3.5A.75.75 0 0 0 10 7zm0 7.5a1 1 0 1 0 0-2 1 1 0 0 0 0 2z"/>
  </symbol>
  <symbol id="error" viewBox="0 0 20 20">
    <path fill="currentColor" d="M10 2a8 8 0 1 1 0 16 8 8 0 0 1 0-16zm0 1.5a6.5 6.5 0 1 0 0 13 6.5 6.5 0 0 0 0-13zM10 12a1 1 0 1 1 0 2 1 1 0 0 1 0-2zm0-6a.75.75 0 0 1 .75.75v4a.75.75 0 0 1-1.5 0v-4A.75.75 0 0 1 10 6z"/>
  </symbol>
  <symbol id="success" viewBox="0 0 20 20">
    <path fill="currentColor" d="M10 2a8 8 0 1 1 0 16 8 8 0 0 1 0-16zm0 1.5a6.5 6.5 0 1 0 0 13 6.5 6.5 0 0 0 0-13zm3.36 4.15a.75.75 0 0 1 .09 1.06l-4 4.5a.75.75 0 0 1-1.08.04l-2-2a.75.75 0 1 1 1.06-1.06l1.44 1.44 3.43-3.89a.75.75 0 0 1 1.06-.09z"/>
  </symbol>
  <symbol id="search" viewBox="0 0 24 24">
    <circle cx="11" cy="11" r="8" fill="none" stroke="currentColor" stroke-width="2" stroke-linecap="round" stroke-linejoin="round"/>
    <path d="m21 21-4.35-4.35" fill="none" stroke="currentColor" stroke-width="2" stroke-linecap="round" stroke-linejoin="round"/>
  </symbol>
  <symbol id="calendar" viewBox="0 0 20 20">
    <path fill="currentColor" d="M7 2a.75.75 0 0 1 .75.75V4h4.5V2.75a.75.75 0 0 1 1.5 0V4H15a2 2 0 0 1 2 2v9a2 2 0 0 1-2 2H5a2 2 0 0 1-2-2V6a2 2 0 0 1 2-2h1.25V2.75A.75.75 0 0 1 7 2zM4.5 9v6a.5.5 0 0 0 .5.5h10a.5.5 0 0 0 .5-.5V9h-11zm11-1.5V6a.5.5 0 0 0-.5-.5H5a.5.5 0 0 0-.5.5v1.5h11z"/>
  </symbol>
  <symbol id="clock" viewBox="0 0 20 20">
    <path fill="currentColor" d="M10 2a8 8 0 1 1 0 16 8 8 0 0 1 0-16zm0 1.5a6.5 6.5 0 1 0 0 13 6.5 6.5 0 0 0 0-13zM10 5a.75.75 0 0 1 .75.75v3.94l2.28 2.28a.75.75 0 1 1-1.06 1.06l-2.5-2.5A.75.75 0 0 1 9.25 10V5.75A.75.75 0 0 1 10 5z"/>
  </symbol>
  <symbol id="upload" viewBox="0 0 20 20">
    <path fill="currentColor" d="M10 2.75a.75.75 0 0 1 .75.75v7.19l2.22-2.22a.75.75 0 1 1 1.06 1.06l-3.5 3.5a.75.75 0 0 1-1.06 0l-3.5-3.5a.75.75 0 0 1 1.06-1.06l2.22 2.22V3.5a.75.75 0 0 1 .75-.75zM4 14.25a.75.75 0 0 1 .75.75v1a.5.5 0 0 0 .5.5h9.5a.5.5 0 0 0 .5-.5v-1a.75.75 0 0 1 1.5 0v1a2 2 0 0 1-2 2h-9.5a2 2 0 0 1-2-2v-1a.75.75 0 0 1 .75-.75z"/>
  </symbol>
  <symbol id="trash" viewBox="0 0 20 20">
    <path fill="currentColor" d="M8.5 4h3a1.5 1.5 0 0 0-3 0zm-1.5 0a3 3 0 0 1 6 0h4.25a.75.75 0 0 1 0 1.5h-.92l-.81 9.74A2.5 2.5 0 0 1 13.04 17H6.96a2.5 2.5 0 0 1-2.49-2.26L3.67 5.5H2.75a.75.75 0 0 1 0-1.5H7zm2 4.75a.75.75 0 0 0-1.5 0v4.5a.75.75 0 0 0 1.5 0v-4.5zm3.25-.75a.75.75 0 0 0-.75.75v4.5a.75.75 0 0 0 1.5 0v-4.5a.75.75 0 0 0-.75-.75z"/>
  </symbol>
  <symbol id="edit" viewBox="0 0 20 20">
    <path fill="currentColor" d="M13.793 2.793a1 1 0 0 1 1.414 0l2 2a1 1 0 0 1 0 1.414l-9 9A1 1 0 0 1 7.5 15.5H5.5a1 1 0 0 1-1-1v-2a1 1 0 0 1 .293-.707l9-9zM6 12.914V14h1.086L14.793 6.293l-1.086-1.086L6 12.914zM3 17.25a.75.75 0 0 1 .75-.75h12.5a.75.75 0 0 1 0 1.5H3.75a.75.75 0 0 1-.75-.75z"/>
  </symbol>
  <symbol id="plus" viewBox="0 0 20 20">
    <path fill="currentColor" d="M10 3a.75.75 0 0 1 .75.75v5.5h5.5a.75.75 0 0 1 0 1.5h-5.5v5.5a.75.75 0 0 1-1.5 0v-5.5h-5.5a.75.75 0 0 1 0-1.5h5.5v-5.5A.75.75 0 0 1 10 3z"/>
  </symbol>
  <symbol id="minus" viewBox="0 0 20 20">
    <path fill="currentColor" d="M3.25 10a.75.75 0 0 1 .75-.75h12a.75.75 0 0 1 0 1.5H4a.75.75 0 0 1-.75-.75z"/>
  </symbol>
  <symbol id="refresh" viewBox="0 0 20 20">
    <path fill="currentColor" d="M14.66 4.34A7.47 7.47 0 0 0 10 2.5a7.5 7.5 0 1 0 7.27 9.36.75.75 0 1 0-1.46-.36A6 6 0 1 1 10 4a5.97 5.97 0 0 1 3.72 1.28L11.5 7.5h5.75a.75.75 0 0 0 .75-.75V1l-3.34 3.34z"/>
  </symbol>
  <symbol id="dismiss" viewBox="0 0 20 20">
    <path fill="currentColor" d="M4.089 4.216a.5.5 0 0 1 .638-.057l.07.057L10 9.42l5.203-5.204a.5.5 0 0 1 .765.638l-.057.07L10.708 10.1l5.203 5.204a.5.5 0 0 1-.638.765l-.07-.057L10 10.808l-5.203 5.204a.5.5 0 0 1-.765-.638l.057-.07L9.292 10.1 4.089 4.924a.5.5 0 0 1 0-.708z"/>
  </symbol>
  <symbol id="spinner" viewBox="0 0 20 20">
    <path fill="currentColor" d="M10 3a.75.75 0 0 1 .75.75A6.25 6.25 0 1 1 4.5 7.2a.75.75 0 0 1 1.3-.75A4.75 4.75 0 1 0 10 5.25.75.75 0 0 1 10 3z"/>
  </symbol>
  <symbol id="monitor" viewBox="0 0 24 24">
    <rect x="2" y="3" width="20" height="14" rx="2" fill="none" stroke="currentColor" stroke-width="2" stroke-linecap="round" stroke-linejoin="round"/>
    <path d="M8 21h8M12 17v4" fill="none" stroke="currentColor" stroke-width="2" stroke-linecap="round" stroke-linejoin="round"/>
  </symbol>
  <symbol id="code" viewBox="0 0 24 24">
    <polyline points="16 18 22 12 16 6" fill="none" stroke="currentColor" stroke-width="2" stroke-linecap="round" stroke-linejoin="round"/>
    <polyline points="8 6 2 12 8 18" fill="none" stroke="currentColor" stroke-width="2" stroke-linecap="round" stroke-linejoin="round"/>
  </symbol>
  <symbol id="copy" viewBox="0 0 24 24">
    <rect x="9" y="9" width="13" height="13" rx="2" fill="none" stroke="currentColor" stroke-width="2" stroke-linecap="round" stroke-linejoin="round"/>
    <path d="M5 15H4a2 2 0 0 1-2-2V4a2 2 0 0 1 2-2h9a2 2 0 0 1 2 2v1" fill="none" stroke="currentColor" stroke-width="2" stroke-linecap="round" stroke-linejoin="round"/>
  </symbol>
  <symbol id="x-close" viewBox="0 0 24 24">
    <path d="M18 6 6 18" fill="none" stroke="currentColor" stroke-width="2" stroke-linecap="round" stroke-linejoin="round"/>
    <path d="m6 6 12 12" fill="none" stroke="currentColor" stroke-width="2" stroke-linecap="round" stroke-linejoin="round"/>
  </symbol>
  <symbol id="download" viewBox="0 0 24 24">
    <path d="M21 15v4a2 2 0 0 1-2 2H5a2 2 0 0 1-2-2v-4" fill="none" stroke="currentColor" stroke-width="2" stroke-linecap="round" stroke-linejoin="round"/>
    <polyline points="7 10 12 15 17 10" fill="none" stroke="currentColor" stroke-width="2" stroke-linecap="round" stroke-linejoin="round"/>
    <line x1="12" y1="15" x2="12" y2="3" stroke="currentColor" stroke-width="2" stroke-linecap="round"/>
  </symbol>
  <symbol id="layers" viewBox="0 0 24 24">
    <path d="M12 2L2 7l10 5 10-5-10-5z" fill="none" stroke="currentColor" stroke-width="2" stroke-linecap="round" stroke-linejoin="round"/>
    <path d="M2 17l10 5 10-5" fill="none" stroke="currentColor" stroke-width="2" stroke-linecap="round" stroke-linejoin="round"/>
    <path d="M2 12l10 5 10-5" fill="none" stroke="currentColor" stroke-width="2" stroke-linecap="round" stroke-linejoin="round"/>
  </symbol>
  <symbol id="star" viewBox="0 0 20 20">
    <path fill="currentColor" d="M9.104 2.9a1 1 0 0 1 1.794 0l1.93 3.91 4.317.628a1 1 0 0 1 .554 1.706l-3.124 3.044.737 4.3a1 1 0 0 1-1.451 1.054L10 15.51l-3.861 2.03a1 1 0 0 1-1.451-1.054l.737-4.3L2.3 9.144a1 1 0 0 1 .554-1.706l4.317-.627L9.104 2.9zM10 4.428 8.326 7.82a1 1 0 0 1-.752.547l-3.748.545 2.712 2.643a1 1 0 0 1 .288.885l-.64 3.731 3.353-1.762a1 1 0 0 1 .93 0l3.354 1.762-.64-3.73a1 1 0 0 1 .287-.886l2.712-2.643-3.748-.545a1 1 0 0 1-.752-.547L10 4.428z"/>
  </symbol>
  <symbol id="star-filled" viewBox="0 0 20 20">
    <path fill="currentColor" d="M9.104 2.9a1 1 0 0 1 1.794 0l1.93 3.91 4.317.628a1 1 0 0 1 .554 1.706l-3.124 3.044.737 4.3a1 1 0 0 1-1.451 1.054L10 15.51l-3.861 2.03a1 1 0 0 1-1.451-1.054l.737-4.3L2.3 9.144a1 1 0 0 1 .554-1.706l4.317-.627L9.104 2.9z"/>
  </symbol>
  <symbol id="sun" viewBox="0 0 24 24">
    <circle cx="12" cy="12" r="5" fill="none" stroke="currentColor" stroke-width="2" stroke-linecap="round" stroke-linejoin="round"/>
    <path d="M12 1v2M12 21v2M4.22 4.22l1.42 1.42M18.36 18.36l1.42 1.42M1 12h2M21 12h2M4.22 19.78l1.42-1.42M18.36 5.64l1.42-1.42" fill="none" stroke="currentColor" stroke-width="2" stroke-linecap="round" stroke-linejoin="round"/>
  </symbol>
  <symbol id="moon" viewBox="0 0 24 24">
    <path d="M21 12.79A9 9 0 1 1 11.21 3 7 7 0 0 0 21 12.79z" fill="none" stroke="currentColor" stroke-width="2" stroke-linecap="round" stroke-linejoin="round"/>
  </symbol>
  <symbol id="chevron-left" viewBox="0 0 24 24">
    <polyline points="15 18 9 12 15 6" fill="none" stroke="currentColor" stroke-width="2" stroke-linecap="round" stroke-linejoin="round"/>
  </symbol>
  <symbol id="bell" viewBox="0 0 24 24">
    <path d="M18 8A6 6 0 0 0 6 8c0 7-3 9-3 9h18s-3-2-3-9" fill="none" stroke="currentColor" stroke-width="2" stroke-linecap="round" stroke-linejoin="round"/>
    <path d="M13.73 21a2 2 0 0 1-3.46 0" fill="none" stroke="currentColor" stroke-width="2" stroke-linecap="round" stroke-linejoin="round"/>
  </symbol>
  <symbol id="home" viewBox="0 0 24 24">
    <path d="M3 12l9-9 9 9" fill="none" stroke="currentColor" stroke-width="2" stroke-linecap="round" stroke-linejoin="round"/>
    <path d="M5 10v10h14V10" fill="none" stroke="currentColor" stroke-width="2" stroke-linecap="round" stroke-linejoin="round"/>
  </symbol>
  <symbol id="menu" viewBox="0 0 24 24">
    <path d="M4 6h16M4 12h16M4 18h16" fill="none" stroke="currentColor" stroke-width="2" stroke-linecap="round" stroke-linejoin="round"/>
  </symbol>
  <symbol id="x" viewBox="0 0 24 24">
    <path d="M18 6 6 18M6 6l12 12" fill="none" stroke="currentColor" stroke-width="2" stroke-linecap="round" stroke-linejoin="round"/>
  </symbol>
  <symbol id="palette" viewBox="0 0 24 24">
    <circle cx="12" cy="12" r="10" fill="none" stroke="currentColor" stroke-width="2" stroke-linecap="round" stroke-linejoin="round"/>
    <path d="M12 2a10 10 0 0 1 0 20 7 7 0 0 1 0-14 3.5 3.5 0 0 0 0-6" fill="none" stroke="currentColor" stroke-width="2" stroke-linecap="round" stroke-linejoin="round"/>
  </symbol>
  <symbol id="layout-kanban" viewBox="0 0 24 24">
    <path d="M4 4h6v16H4zM14 4h6v9h-6z" fill="none" stroke="currentColor" stroke-width="2" stroke-linecap="round" stroke-linejoin="round"/>
  </symbol>
  <symbol id="list" viewBox="0 0 24 24">
    <path d="M4 6h16M4 12h16M4 18h16" fill="none" stroke="currentColor" stroke-width="2" stroke-linecap="round" stroke-linejoin="round"/>
  </symbol>
  <symbol id="timeline" viewBox="0 0 24 24">
    <path d="M3 6h12M3 12h18M3 18h9" fill="none" stroke="currentColor" stroke-width="2" stroke-linecap="round" stroke-linejoin="round"/>
  </symbol>
  <symbol id="chart-bar" viewBox="0 0 24 24">
    <path d="M3 20V10M9 20V4M15 20v-8M21 20V8" fill="none" stroke="currentColor" stroke-width="2" stroke-linecap="round" stroke-linejoin="round"/>
  </symbol>
  <symbol id="users" viewBox="0 0 24 24">
    <path d="M16 11a4 4 0 1 0-4-4 4 4 0 0 0 4 4z" fill="none" stroke="currentColor" stroke-width="2" stroke-linecap="round" stroke-linejoin="round"/>
    <path d="M2 20c0-3 3-5 6-5s6 2 6 5M14 20c0-2 2-4 5-4s5 2 5 4" fill="none" stroke="currentColor" stroke-width="2" stroke-linecap="round" stroke-linejoin="round"/>
  </symbol>
  <symbol id="alert-triangle" viewBox="0 0 24 24">
    <path d="M12 3l10 18H2z" fill="none" stroke="currentColor" stroke-width="2" stroke-linecap="round" stroke-linejoin="round"/>
    <path d="M12 10v5M12 18v.01" fill="none" stroke="currentColor" stroke-width="2" stroke-linecap="round" stroke-linejoin="round"/>
  </symbol>
  <symbol id="menu-2" viewBox="0 0 24 24">
    <path d="M3 5h14M3 10h14M3 15h14" fill="none" stroke="currentColor" stroke-width="2" stroke-linecap="round" stroke-linejoin="round"/>
  </symbol>
</svg>
